<svg version="1.0" xmlns="http://www.w3.org/2000/svg"  width="600.000000pt" height="600.000000pt" viewBox="0 0 600.000000 515"  preserveAspectRatio="xMidYMid meet"> <g transform="translate(0.000000,600.000000) scale(0.100000,-0.100000)" fill="#098e47" stroke="none"> 
<path d="M1545 5123 c-275 -38 -535 -242 -640 -501 -57 -141 -56 -97 -53 -1557 l3 -1340 24 -70 c82 -244 238 -424 455 -526 170 -79 67 -74 1486 -74 l1265 0 77 22 c199 57 365 176 476 342 117 175 142 278 142 589 0 156 -3 221 -12 230 -8 8 -53 12 -135 12 -106 0 -124 -2 -132 -17 -5 -10 -11 -115 -13 -233 -4 -188 -7 -223 -26 -277 -59 -168 -180 -295 -338 -355 l-59 -23 -1212 -3 c-1316 -3 -1288 -4 -1405 52 -143 68 -263 223 -297 384 -6 29 -11 145 -11 257 0 192 1 205 19 215 30 15 783 14 799 -2 7 -7 12 -24 12 -39 0 -18 10 -36 31 -53 30 -26 31 -26 213 -26 179 0 184 1 209 24 34 32 39 64 35 249 -3 156 -3 157 -31 184 l-27 28 -172 3 c-181 4 -216 -3 -243 -42 -8 -11 -15 -33 -15 -48 0 -22 -7 -31 -27 -39 -16 -6 -167 -9 -405 -7 -324 3 -380 5 -388 18 -5 8 -10 92 -10 186 0 133 3 174 14 183 9 8 194 10 672 9 l659 -3 6 -39 c12 -71 26 -76 234 -76 247 0 229 -17 233 223 3 184 3 185 -22 213 l-24 29 -186 0 c-176 0 -187 -1 -207 -21 -11 -12 -24 -37 -28 -55 l-7 -34 -649 -5 c-434 -3 -656 -2 -669 5 -20 10 -21 20 -24 194 -2 127 1 188 9 197 9 12 83 14 409 14 433 0 410 3 410 -55 0 -14 13 -34 31 -49 30 -26 31 -26 210 -26 110 0 188 4 201 11 38 20 48 68 48 232 0 85 -5 168 -11 185 -20 57 -39 62 -238 62 -178 0 -180 0 -210 -26 -21 -17 -31 -35 -31 -53 0 -15 -5 -32 -12 -39 -9 -9 -111 -12 -399 -12 -339 0 -390 2 -403 16 -14 13 -16 55 -16 308 0 161 4 318 10 347 16 86 74 193 144 263 71 73 175 128 276 146 49 9 369 11 1281 6 1175 -6 1218 -7 1274 -26 159 -55 282 -174 337 -329 17 -46 21 -89 25 -236 3 -99 10 -186 15 -192 14 -18 249 -18 266 -1 18 18 16 347 -3 439 -65 306 -322 559 -637 623 -68 14 -221 16 -1315 15 -681 -1 -1251 -4 -1268 -6z m780 -1488 l0 -110 -120 0 -120 0 -3 99 c-1 55 0 106 2 113 4 11 32 13 123 11 l118 -3 0 -110z m496 -535 c17 -10 19 -22 19 -108 0 -63 -4 -102 -12 -110 -13 -13 -183 -17 -212 -6 -13 5 -16 25 -16 114 0 77 4 110 13 113 23 10 188 7 208 -3z m-493 -721 c2 -82 -1 -109 -12 -118 -9 -8 -50 -11 -122 -9 l-109 3 -3 104 c-1 58 0 111 2 118 4 11 32 13 123 11 l118 -3 3 -106z"/> <path d="M1590 4463 c-33 -12 -40 -36 -40 -148 0 -80 4 -117 14 -131 14 -18 36 -19 683 -24 l668 -5 80 -27 c122 -42 218 -101 311 -190 129 -123 207 -247 264 -415 l29 -88 156 -3 c127 -2 155 0 155 11 0 37 -66 233 -110 324 -159 336 -427 570 -751 658 -73 20 -134 28 -269 35 -184 10 -1164 12 -1190 3z"/> <path d="M4550 3708 c0 -13 32 -108 69 -213 50 -137 66 -193 59 -202 -8 -10 -127 -13 -534 -13 l-524 0 0 -93 c0 -589 -342 -1085 -845 -1228 -78 -22 -97 -23 -628 -28 -528 -6 -549 -7 -563 -25 -10 -14 -14 -51 -14 -131 0 -97 2 -114 19 -129 18 -16 59 -17 573 -13 471 3 563 7 623 21 374 89 665 292 882 616 108 161 203 391 244 594 11 55 26 104 32 108 14 9 698 11 721 2 9 -3 16 -13 16 -21 0 -9 -29 -98 -65 -198 -73 -205 -77 -230 -42 -223 22 4 893 535 930 566 37 32 75 5 -682 484 -129 81 -242 148 -252 148 -13 0 -19 -7 -19 -22z"/> </g> </svg>