<svg version="1.0" xmlns="http://www.w3.org/2000/svg" width="35" height="35" viewBox="0 0 600 515" preserveAspectRatio="xMidYMid meet"> <g transform="translate(0.000000,600.000000) scale(0.100000,-0.100000)" fill="white"
stroke="white"
stroke-width="30"> <path d="M2451 4900 c-40 -11 -108 -35 -150 -53 -272 -117 -473 -372 -527 -667 -68 -376 133 -764 489 -939 112 -55 212 -81 338 -88 422 -24 780 230 899 637 30 103 38 304 17 415 -66 352 -334 626 -682 700 -102 21 -292 19 -384 -5z m403 -280 c289 -96 472 -425 398 -717 -33 -130 -76 -206 -167 -299 -126 -128 -257 -184 -434 -184 -168 0 -322 63 -440 181 -234 234 -243 600 -21 851 55 63 173 141 254 168 126 42 286 42 410 0z"/> <path d="M4173 3355 c-18 -8 -42 -29 -53 -47 -19 -31 -20 -50 -20 -310 l0 -277 -286 -3 -286 -3 -34 -37 c-29 -33 -34 -45 -34 -89 0 -46 4 -55 39 -90 l39 -39 281 0 281 0 0 -255 c0 -278 4 -303 55 -343 20 -16 42 -22 76 -22 42 0 55 5 87 34 l37 34 3 276 3 276 274 0 c171 0 283 4 297 11 63 28 90 138 47 193 -42 54 -55 56 -349 56 l-270 0 0 278 c0 260 -1 279 -20 310 -21 34 -72 62 -112 62 -13 -1 -38 -7 -55 -15z"/> <path d="M2269 2940 c-203 -18 -419 -84 -584 -178 -119 -68 -179 -114 -291 -226 -193 -194 -318 -428 -369 -688 -23 -115 -32 -338 -15 -378 42 -102 184 -110 234 -12 8 17 15 82 19 172 7 176 36 302 101 434 161 330 464 540 871 603 125 19 517 12 670 -12 174 -27 218 -29 253 -11 79 41 83 170 8 220 -84 54 -623 100 -897 76z"/> </g> </svg>